<svg width="36" height="36" viewBox="0 0 36 36" fill="none" xmlns="http://www.w3.org/2000/svg">
<circle cx="18" cy="18" r="18" fill="#DFEDFD"/>
<path d="M27.3333 30.5V28.1667C27.3333 26.929 26.8417 25.742 25.9665 24.8668C25.0913 23.9917 23.9043 23.5 22.6667 23.5H13.3333C12.0957 23.5 10.9087 23.9917 10.0335 24.8668C9.15833 25.742 8.66667 26.929 8.66667 28.1667V30.5M22.6667 14.1667C22.6667 16.744 20.5773 18.8333 18 18.8333C15.4227 18.8333 13.3333 16.744 13.3333 14.1667C13.3333 11.5893 15.4227 9.5 18 9.5C20.5773 9.5 22.6667 11.5893 22.6667 14.1667Z" stroke="#1E1E1E" stroke-width="2.5" stroke-linecap="round" stroke-linejoin="round"/>
</svg>
